<mxfile host="65bd71144e">
    <diagram id="C5RBs43oDa-KdzZeNtuy" name="Page-1">
        <mxGraphModel dx="574" dy="564" grid="1" gridSize="10" guides="1" tooltips="1" connect="1" arrows="1" fold="1" page="1" pageScale="1" pageWidth="827" pageHeight="1169" math="0" shadow="0">
            <root>
                <mxCell id="WIyWlLk6GJQsqaUBKTNV-0"/>
                <mxCell id="WIyWlLk6GJQsqaUBKTNV-1" parent="WIyWlLk6GJQsqaUBKTNV-0"/>
                <mxCell id="Z5hQmFH2F7mChiqIoMt5-158" value="" style="edgeStyle=none;rounded=0;orthogonalLoop=1;jettySize=auto;html=1;fontSize=9;entryX=0.5;entryY=0;entryDx=0;entryDy=0;endArrow=none;endFill=0;" parent="WIyWlLk6GJQsqaUBKTNV-1" source="Z5hQmFH2F7mChiqIoMt5-146" target="Z5hQmFH2F7mChiqIoMt5-14" edge="1">
                    <mxGeometry relative="1" as="geometry">
                        <mxPoint x="63.45724907063197" y="280" as="targetPoint"/>
                    </mxGeometry>
                </mxCell>
                <mxCell id="Z5hQmFH2F7mChiqIoMt5-254" value="" style="edgeStyle=none;rounded=0;orthogonalLoop=1;jettySize=auto;html=1;fontSize=9;exitX=0.5;exitY=1;exitDx=0;exitDy=0;endArrow=none;endFill=0;entryX=0.5;entryY=0;entryDx=0;entryDy=0;" parent="WIyWlLk6GJQsqaUBKTNV-1" source="Z5hQmFH2F7mChiqIoMt5-252" target="Z5hQmFH2F7mChiqIoMt5-146" edge="1">
                    <mxGeometry relative="1" as="geometry">
                        <mxPoint x="63.45724907063197" y="100" as="sourcePoint"/>
                    </mxGeometry>
                </mxCell>
                <mxCell id="Z5hQmFH2F7mChiqIoMt5-146" value="S+" style="rounded=0;whiteSpace=wrap;html=1;fontSize=9;" parent="WIyWlLk6GJQsqaUBKTNV-1" vertex="1">
                    <mxGeometry x="52.30483271375464" y="180" width="22.304832713754646" height="20" as="geometry"/>
                </mxCell>
                <mxCell id="Z5hQmFH2F7mChiqIoMt5-156" value="" style="edgeStyle=none;rounded=0;orthogonalLoop=1;jettySize=auto;html=1;fontSize=9;entryX=0.5;entryY=0;entryDx=0;entryDy=0;endArrow=none;endFill=0;" parent="WIyWlLk6GJQsqaUBKTNV-1" target="Z5hQmFH2F7mChiqIoMt5-15" edge="1">
                    <mxGeometry relative="1" as="geometry">
                        <mxPoint x="63" y="200" as="sourcePoint"/>
                    </mxGeometry>
                </mxCell>
                <mxCell id="Z5hQmFH2F7mChiqIoMt5-157" value="" style="edgeStyle=none;rounded=0;orthogonalLoop=1;jettySize=auto;html=1;fontSize=9;exitX=0.5;exitY=1;exitDx=0;exitDy=0;entryX=0.5;entryY=0;entryDx=0;entryDy=0;endArrow=none;endFill=0;" parent="WIyWlLk6GJQsqaUBKTNV-1" source="Z5hQmFH2F7mChiqIoMt5-146" target="Z5hQmFH2F7mChiqIoMt5-13" edge="1">
                    <mxGeometry relative="1" as="geometry">
                        <mxPoint x="41.152416356877325" y="140" as="sourcePoint"/>
                    </mxGeometry>
                </mxCell>
                <object label="" branch="0" id="Z5hQmFH2F7mChiqIoMt5-19">
                    <mxCell style="group;fontSize=9;" parent="WIyWlLk6GJQsqaUBKTNV-1" vertex="1" connectable="0">
                        <mxGeometry x="30" y="220" width="66.17100371747212" height="20" as="geometry"/>
                    </mxCell>
                </object>
                <mxCell id="Z5hQmFH2F7mChiqIoMt5-13" value="C0" style="rounded=0;whiteSpace=wrap;html=1;fontSize=9;" parent="Z5hQmFH2F7mChiqIoMt5-19" vertex="1">
                    <mxGeometry width="22.304832713754646" height="20" as="geometry"/>
                </mxCell>
                <mxCell id="Z5hQmFH2F7mChiqIoMt5-14" value="C1" style="rounded=0;whiteSpace=wrap;html=1;fontSize=9;" parent="Z5hQmFH2F7mChiqIoMt5-19" vertex="1">
                    <mxGeometry x="22.304832713754646" width="22.304832713754646" height="20" as="geometry"/>
                </mxCell>
                <mxCell id="Z5hQmFH2F7mChiqIoMt5-15" value="C2" style="rounded=0;whiteSpace=wrap;html=1;fontSize=9;" parent="Z5hQmFH2F7mChiqIoMt5-19" vertex="1">
                    <mxGeometry x="43.86617100371747" width="22.304832713754646" height="20" as="geometry"/>
                </mxCell>
                <mxCell id="Z5hQmFH2F7mChiqIoMt5-175" value="" style="edgeStyle=none;rounded=0;orthogonalLoop=1;jettySize=auto;html=1;fontSize=9;entryX=0.5;entryY=0;entryDx=0;entryDy=0;endArrow=none;endFill=0;" parent="WIyWlLk6GJQsqaUBKTNV-1" source="Z5hQmFH2F7mChiqIoMt5-176" target="Z5hQmFH2F7mChiqIoMt5-181" edge="1">
                    <mxGeometry relative="1" as="geometry">
                        <mxPoint x="129.627249070632" y="280" as="targetPoint"/>
                    </mxGeometry>
                </mxCell>
                <mxCell id="Z5hQmFH2F7mChiqIoMt5-253" value="" style="edgeStyle=none;rounded=0;orthogonalLoop=1;jettySize=auto;html=1;fontSize=9;endArrow=none;endFill=0;" parent="WIyWlLk6GJQsqaUBKTNV-1" source="Z5hQmFH2F7mChiqIoMt5-252" target="Z5hQmFH2F7mChiqIoMt5-176" edge="1">
                    <mxGeometry relative="1" as="geometry"/>
                </mxCell>
                <mxCell id="Z5hQmFH2F7mChiqIoMt5-176" value="S-" style="rounded=0;whiteSpace=wrap;html=1;fontSize=9;" parent="WIyWlLk6GJQsqaUBKTNV-1" vertex="1">
                    <mxGeometry x="118.47483271375464" y="180" width="22.304832713754646" height="20" as="geometry"/>
                </mxCell>
                <mxCell id="Z5hQmFH2F7mChiqIoMt5-177" value="" style="edgeStyle=none;rounded=0;orthogonalLoop=1;jettySize=auto;html=1;fontSize=9;exitX=0.5;exitY=1;exitDx=0;exitDy=0;entryX=0.5;entryY=0;entryDx=0;entryDy=0;endArrow=none;endFill=0;" parent="WIyWlLk6GJQsqaUBKTNV-1" source="Z5hQmFH2F7mChiqIoMt5-176" target="Z5hQmFH2F7mChiqIoMt5-182" edge="1">
                    <mxGeometry relative="1" as="geometry"/>
                </mxCell>
                <mxCell id="Z5hQmFH2F7mChiqIoMt5-178" value="" style="edgeStyle=none;rounded=0;orthogonalLoop=1;jettySize=auto;html=1;fontSize=9;exitX=0.5;exitY=1;exitDx=0;exitDy=0;entryX=0.5;entryY=0;entryDx=0;entryDy=0;endArrow=none;endFill=0;" parent="WIyWlLk6GJQsqaUBKTNV-1" source="Z5hQmFH2F7mChiqIoMt5-176" target="Z5hQmFH2F7mChiqIoMt5-180" edge="1">
                    <mxGeometry relative="1" as="geometry">
                        <mxPoint x="107.32241635687733" y="140" as="sourcePoint"/>
                    </mxGeometry>
                </mxCell>
                <object label="" branch="0" id="Z5hQmFH2F7mChiqIoMt5-179">
                    <mxCell style="group;fontSize=9;" parent="WIyWlLk6GJQsqaUBKTNV-1" vertex="1" connectable="0">
                        <mxGeometry x="96.17" y="220" width="66.17100371747212" height="20" as="geometry"/>
                    </mxCell>
                </object>
                <mxCell id="Z5hQmFH2F7mChiqIoMt5-180" value="" style="rounded=0;whiteSpace=wrap;html=1;fontSize=9;" parent="Z5hQmFH2F7mChiqIoMt5-179" vertex="1">
                    <mxGeometry width="22.304832713754646" height="20" as="geometry"/>
                </mxCell>
                <mxCell id="Z5hQmFH2F7mChiqIoMt5-181" value="" style="rounded=0;whiteSpace=wrap;html=1;fontSize=9;" parent="Z5hQmFH2F7mChiqIoMt5-179" vertex="1">
                    <mxGeometry x="22.304832713754646" width="22.304832713754646" height="20" as="geometry"/>
                </mxCell>
                <mxCell id="Z5hQmFH2F7mChiqIoMt5-182" value="" style="rounded=0;whiteSpace=wrap;html=1;fontSize=9;" parent="Z5hQmFH2F7mChiqIoMt5-179" vertex="1">
                    <mxGeometry x="43.86617100371747" width="22.304832713754646" height="20" as="geometry"/>
                </mxCell>
                <mxCell id="Z5hQmFH2F7mChiqIoMt5-255" value="" style="edgeStyle=none;rounded=0;orthogonalLoop=1;jettySize=auto;html=1;fontSize=9;exitX=0.5;exitY=1;exitDx=0;exitDy=0;endArrow=none;endFill=0;exitPerimeter=0;entryX=0.5;entryY=0;entryDx=0;entryDy=0;" parent="WIyWlLk6GJQsqaUBKTNV-1" source="Z5hQmFH2F7mChiqIoMt5-252" edge="1">
                    <mxGeometry relative="1" as="geometry">
                        <mxPoint x="195.79724907063198" y="100" as="sourcePoint"/>
                        <mxPoint x="195.797249070632" y="180" as="targetPoint"/>
                    </mxGeometry>
                </mxCell>
                <mxCell id="Z5hQmFH2F7mChiqIoMt5-319" value="" style="edgeStyle=none;rounded=0;orthogonalLoop=1;jettySize=auto;html=1;fontSize=9;endArrow=none;endFill=0;entryX=0.5;entryY=1;entryDx=0;entryDy=0;exitX=0.5;exitY=0;exitDx=0;exitDy=0;" parent="WIyWlLk6GJQsqaUBKTNV-1" source="Z5hQmFH2F7mChiqIoMt5-252" target="Z5hQmFH2F7mChiqIoMt5-317" edge="1">
                    <mxGeometry relative="1" as="geometry">
                        <mxPoint x="129.62724907063196" y="60" as="targetPoint"/>
                    </mxGeometry>
                </mxCell>
                <mxCell id="Z5hQmFH2F7mChiqIoMt5-252" value="C0" style="rounded=0;whiteSpace=wrap;html=1;fontSize=9;" parent="WIyWlLk6GJQsqaUBKTNV-1" vertex="1">
                    <mxGeometry x="118.47483271375464" y="140" width="22.304832713754646" height="20" as="geometry"/>
                </mxCell>
                <mxCell id="Z5hQmFH2F7mChiqIoMt5-261" value="" style="edgeStyle=none;rounded=0;orthogonalLoop=1;jettySize=auto;html=1;fontSize=9;entryX=0.5;entryY=0;entryDx=0;entryDy=0;endArrow=none;endFill=0;" parent="WIyWlLk6GJQsqaUBKTNV-1" source="Z5hQmFH2F7mChiqIoMt5-263" target="Z5hQmFH2F7mChiqIoMt5-268" edge="1">
                    <mxGeometry relative="1" as="geometry">
                        <mxPoint x="263.457249070632" y="280" as="targetPoint"/>
                    </mxGeometry>
                </mxCell>
                <mxCell id="Z5hQmFH2F7mChiqIoMt5-262" value="" style="edgeStyle=none;rounded=0;orthogonalLoop=1;jettySize=auto;html=1;fontSize=9;exitX=0.5;exitY=1;exitDx=0;exitDy=0;endArrow=none;endFill=0;entryX=0.5;entryY=0;entryDx=0;entryDy=0;" parent="WIyWlLk6GJQsqaUBKTNV-1" source="Z5hQmFH2F7mChiqIoMt5-288" target="Z5hQmFH2F7mChiqIoMt5-263" edge="1">
                    <mxGeometry relative="1" as="geometry">
                        <mxPoint x="263.457249070632" y="100" as="sourcePoint"/>
                    </mxGeometry>
                </mxCell>
                <mxCell id="Z5hQmFH2F7mChiqIoMt5-263" value="S+" style="rounded=0;whiteSpace=wrap;html=1;fontSize=9;" parent="WIyWlLk6GJQsqaUBKTNV-1" vertex="1">
                    <mxGeometry x="252.30483271375465" y="180" width="22.304832713754646" height="20" as="geometry"/>
                </mxCell>
                <mxCell id="Z5hQmFH2F7mChiqIoMt5-264" value="" style="edgeStyle=none;rounded=0;orthogonalLoop=1;jettySize=auto;html=1;fontSize=9;exitX=0.5;exitY=1;exitDx=0;exitDy=0;entryX=0.5;entryY=0;entryDx=0;entryDy=0;endArrow=none;endFill=0;" parent="WIyWlLk6GJQsqaUBKTNV-1" source="Z5hQmFH2F7mChiqIoMt5-263" target="Z5hQmFH2F7mChiqIoMt5-269" edge="1">
                    <mxGeometry relative="1" as="geometry"/>
                </mxCell>
                <mxCell id="Z5hQmFH2F7mChiqIoMt5-265" value="" style="edgeStyle=none;rounded=0;orthogonalLoop=1;jettySize=auto;html=1;fontSize=9;exitX=0.5;exitY=1;exitDx=0;exitDy=0;entryX=0.5;entryY=0;entryDx=0;entryDy=0;endArrow=none;endFill=0;" parent="WIyWlLk6GJQsqaUBKTNV-1" source="Z5hQmFH2F7mChiqIoMt5-263" target="Z5hQmFH2F7mChiqIoMt5-267" edge="1">
                    <mxGeometry relative="1" as="geometry">
                        <mxPoint x="241.15241635687732" y="140" as="sourcePoint"/>
                    </mxGeometry>
                </mxCell>
                <object label="" branch="0" id="Z5hQmFH2F7mChiqIoMt5-266">
                    <mxCell style="group;fontSize=9;" parent="WIyWlLk6GJQsqaUBKTNV-1" vertex="1" connectable="0">
                        <mxGeometry x="230" y="220" width="66.17100371747212" height="20" as="geometry"/>
                    </mxCell>
                </object>
                <mxCell id="Z5hQmFH2F7mChiqIoMt5-267" value="" style="rounded=0;whiteSpace=wrap;html=1;fontSize=9;" parent="Z5hQmFH2F7mChiqIoMt5-266" vertex="1">
                    <mxGeometry width="22.304832713754646" height="20" as="geometry"/>
                </mxCell>
                <mxCell id="Z5hQmFH2F7mChiqIoMt5-268" value="" style="rounded=0;whiteSpace=wrap;html=1;fontSize=9;" parent="Z5hQmFH2F7mChiqIoMt5-266" vertex="1">
                    <mxGeometry x="22.304832713754646" width="22.304832713754646" height="20" as="geometry"/>
                </mxCell>
                <mxCell id="Z5hQmFH2F7mChiqIoMt5-269" value="" style="rounded=0;whiteSpace=wrap;html=1;fontSize=9;" parent="Z5hQmFH2F7mChiqIoMt5-266" vertex="1">
                    <mxGeometry x="43.86617100371747" width="22.304832713754646" height="20" as="geometry"/>
                </mxCell>
                <mxCell id="Z5hQmFH2F7mChiqIoMt5-270" value="" style="edgeStyle=none;rounded=0;orthogonalLoop=1;jettySize=auto;html=1;fontSize=9;entryX=0.5;entryY=0;entryDx=0;entryDy=0;endArrow=none;endFill=0;" parent="WIyWlLk6GJQsqaUBKTNV-1" source="Z5hQmFH2F7mChiqIoMt5-272" target="Z5hQmFH2F7mChiqIoMt5-277" edge="1">
                    <mxGeometry relative="1" as="geometry">
                        <mxPoint x="329.627249070632" y="280" as="targetPoint"/>
                    </mxGeometry>
                </mxCell>
                <mxCell id="Z5hQmFH2F7mChiqIoMt5-271" value="" style="edgeStyle=none;rounded=0;orthogonalLoop=1;jettySize=auto;html=1;fontSize=9;endArrow=none;endFill=0;" parent="WIyWlLk6GJQsqaUBKTNV-1" source="Z5hQmFH2F7mChiqIoMt5-288" target="Z5hQmFH2F7mChiqIoMt5-272" edge="1">
                    <mxGeometry relative="1" as="geometry"/>
                </mxCell>
                <mxCell id="Z5hQmFH2F7mChiqIoMt5-272" value="S-" style="rounded=0;whiteSpace=wrap;html=1;fontSize=9;" parent="WIyWlLk6GJQsqaUBKTNV-1" vertex="1">
                    <mxGeometry x="318.4748327137546" y="180" width="22.304832713754646" height="20" as="geometry"/>
                </mxCell>
                <mxCell id="Z5hQmFH2F7mChiqIoMt5-273" value="" style="edgeStyle=none;rounded=0;orthogonalLoop=1;jettySize=auto;html=1;fontSize=9;entryX=0.5;entryY=0;entryDx=0;entryDy=0;endArrow=none;endFill=0;" parent="WIyWlLk6GJQsqaUBKTNV-1" target="Z5hQmFH2F7mChiqIoMt5-278" edge="1">
                    <mxGeometry relative="1" as="geometry">
                        <mxPoint x="330" y="200" as="sourcePoint"/>
                    </mxGeometry>
                </mxCell>
                <mxCell id="Z5hQmFH2F7mChiqIoMt5-274" value="" style="edgeStyle=none;rounded=0;orthogonalLoop=1;jettySize=auto;html=1;fontSize=9;exitX=0.5;exitY=1;exitDx=0;exitDy=0;entryX=0.5;entryY=0;entryDx=0;entryDy=0;endArrow=none;endFill=0;" parent="WIyWlLk6GJQsqaUBKTNV-1" source="Z5hQmFH2F7mChiqIoMt5-272" target="Z5hQmFH2F7mChiqIoMt5-276" edge="1">
                    <mxGeometry relative="1" as="geometry">
                        <mxPoint x="307.32241635687734" y="140" as="sourcePoint"/>
                    </mxGeometry>
                </mxCell>
                <object label="" branch="0" id="Z5hQmFH2F7mChiqIoMt5-275">
                    <mxCell style="group;fontSize=9;" parent="WIyWlLk6GJQsqaUBKTNV-1" vertex="1" connectable="0">
                        <mxGeometry x="296.17" y="220" width="66.17100371747212" height="20" as="geometry"/>
                    </mxCell>
                </object>
                <mxCell id="Z5hQmFH2F7mChiqIoMt5-276" value="" style="rounded=0;whiteSpace=wrap;html=1;fontSize=9;" parent="Z5hQmFH2F7mChiqIoMt5-275" vertex="1">
                    <mxGeometry width="22.304832713754646" height="20" as="geometry"/>
                </mxCell>
                <mxCell id="Z5hQmFH2F7mChiqIoMt5-277" value="" style="rounded=0;whiteSpace=wrap;html=1;fontSize=9;" parent="Z5hQmFH2F7mChiqIoMt5-275" vertex="1">
                    <mxGeometry x="22.304832713754646" width="22.304832713754646" height="20" as="geometry"/>
                </mxCell>
                <mxCell id="Z5hQmFH2F7mChiqIoMt5-278" value="" style="rounded=0;whiteSpace=wrap;html=1;fontSize=9;" parent="Z5hQmFH2F7mChiqIoMt5-275" vertex="1">
                    <mxGeometry x="43.86617100371747" width="22.304832713754646" height="20" as="geometry"/>
                </mxCell>
                <mxCell id="Z5hQmFH2F7mChiqIoMt5-279" value="" style="edgeStyle=none;rounded=0;orthogonalLoop=1;jettySize=auto;html=1;fontSize=9;entryX=0.5;entryY=0;entryDx=0;entryDy=0;endArrow=none;endFill=0;" parent="WIyWlLk6GJQsqaUBKTNV-1" source="Z5hQmFH2F7mChiqIoMt5-281" target="Z5hQmFH2F7mChiqIoMt5-286" edge="1">
                    <mxGeometry relative="1" as="geometry">
                        <mxPoint x="395.797249070632" y="280" as="targetPoint"/>
                    </mxGeometry>
                </mxCell>
                <mxCell id="Z5hQmFH2F7mChiqIoMt5-280" value="" style="edgeStyle=none;rounded=0;orthogonalLoop=1;jettySize=auto;html=1;fontSize=9;exitX=0.5;exitY=1;exitDx=0;exitDy=0;endArrow=none;endFill=0;entryX=0.5;entryY=0;entryDx=0;entryDy=0;" parent="WIyWlLk6GJQsqaUBKTNV-1" source="Z5hQmFH2F7mChiqIoMt5-288" target="Z5hQmFH2F7mChiqIoMt5-281" edge="1">
                    <mxGeometry relative="1" as="geometry">
                        <mxPoint x="395.797249070632" y="100" as="sourcePoint"/>
                    </mxGeometry>
                </mxCell>
                <mxCell id="Z5hQmFH2F7mChiqIoMt5-281" value="S-" style="rounded=0;whiteSpace=wrap;html=1;fontSize=9;" parent="WIyWlLk6GJQsqaUBKTNV-1" vertex="1">
                    <mxGeometry x="384.6448327137547" y="180" width="22.304832713754646" height="20" as="geometry"/>
                </mxCell>
                <mxCell id="Z5hQmFH2F7mChiqIoMt5-282" value="" style="edgeStyle=none;rounded=0;orthogonalLoop=1;jettySize=auto;html=1;fontSize=9;entryX=0.5;entryY=0;entryDx=0;entryDy=0;endArrow=none;endFill=0;" parent="WIyWlLk6GJQsqaUBKTNV-1" target="Z5hQmFH2F7mChiqIoMt5-287" edge="1">
                    <mxGeometry relative="1" as="geometry">
                        <mxPoint x="396" y="200" as="sourcePoint"/>
                    </mxGeometry>
                </mxCell>
                <mxCell id="Z5hQmFH2F7mChiqIoMt5-283" value="" style="edgeStyle=none;rounded=0;orthogonalLoop=1;jettySize=auto;html=1;fontSize=9;exitX=0.5;exitY=1;exitDx=0;exitDy=0;entryX=0.5;entryY=0;entryDx=0;entryDy=0;endArrow=none;endFill=0;" parent="WIyWlLk6GJQsqaUBKTNV-1" source="Z5hQmFH2F7mChiqIoMt5-281" target="Z5hQmFH2F7mChiqIoMt5-285" edge="1">
                    <mxGeometry relative="1" as="geometry">
                        <mxPoint x="373.49241635687736" y="140" as="sourcePoint"/>
                    </mxGeometry>
                </mxCell>
                <object label="" branch="0" id="Z5hQmFH2F7mChiqIoMt5-284">
                    <mxCell style="group;fontSize=9;" parent="WIyWlLk6GJQsqaUBKTNV-1" vertex="1" connectable="0">
                        <mxGeometry x="362.34000000000003" y="220" width="66.17100371747212" height="20" as="geometry"/>
                    </mxCell>
                </object>
                <mxCell id="Z5hQmFH2F7mChiqIoMt5-285" value="" style="rounded=0;whiteSpace=wrap;html=1;fontSize=9;" parent="Z5hQmFH2F7mChiqIoMt5-284" vertex="1">
                    <mxGeometry width="22.304832713754646" height="20" as="geometry"/>
                </mxCell>
                <mxCell id="Z5hQmFH2F7mChiqIoMt5-286" value="" style="rounded=0;whiteSpace=wrap;html=1;fontSize=9;" parent="Z5hQmFH2F7mChiqIoMt5-284" vertex="1">
                    <mxGeometry x="22.304832713754646" width="22.304832713754646" height="20" as="geometry"/>
                </mxCell>
                <mxCell id="Z5hQmFH2F7mChiqIoMt5-287" value="" style="rounded=0;whiteSpace=wrap;html=1;fontSize=9;" parent="Z5hQmFH2F7mChiqIoMt5-284" vertex="1">
                    <mxGeometry x="43.86617100371747" width="22.304832713754646" height="20" as="geometry"/>
                </mxCell>
                <mxCell id="Z5hQmFH2F7mChiqIoMt5-318" value="" style="edgeStyle=none;rounded=0;orthogonalLoop=1;jettySize=auto;html=1;fontSize=9;endArrow=none;endFill=0;" parent="WIyWlLk6GJQsqaUBKTNV-1" source="Z5hQmFH2F7mChiqIoMt5-288" target="Z5hQmFH2F7mChiqIoMt5-317" edge="1">
                    <mxGeometry relative="1" as="geometry"/>
                </mxCell>
                <mxCell id="Z5hQmFH2F7mChiqIoMt5-288" value="C1" style="rounded=0;whiteSpace=wrap;html=1;fontSize=9;" parent="WIyWlLk6GJQsqaUBKTNV-1" vertex="1">
                    <mxGeometry x="318.4748327137546" y="140" width="22.304832713754646" height="20" as="geometry"/>
                </mxCell>
                <mxCell id="Z5hQmFH2F7mChiqIoMt5-289" value="" style="edgeStyle=none;rounded=0;orthogonalLoop=1;jettySize=auto;html=1;fontSize=9;entryX=0.5;entryY=0;entryDx=0;entryDy=0;endArrow=none;endFill=0;" parent="WIyWlLk6GJQsqaUBKTNV-1" source="Z5hQmFH2F7mChiqIoMt5-291" target="Z5hQmFH2F7mChiqIoMt5-296" edge="1">
                    <mxGeometry relative="1" as="geometry">
                        <mxPoint x="463.457249070632" y="280" as="targetPoint"/>
                    </mxGeometry>
                </mxCell>
                <mxCell id="Z5hQmFH2F7mChiqIoMt5-290" value="" style="edgeStyle=none;rounded=0;orthogonalLoop=1;jettySize=auto;html=1;fontSize=9;exitX=0.5;exitY=1;exitDx=0;exitDy=0;endArrow=none;endFill=0;entryX=0.5;entryY=0;entryDx=0;entryDy=0;" parent="WIyWlLk6GJQsqaUBKTNV-1" source="Z5hQmFH2F7mChiqIoMt5-316" target="Z5hQmFH2F7mChiqIoMt5-291" edge="1">
                    <mxGeometry relative="1" as="geometry">
                        <mxPoint x="463.457249070632" y="100" as="sourcePoint"/>
                    </mxGeometry>
                </mxCell>
                <mxCell id="Z5hQmFH2F7mChiqIoMt5-291" value="S+" style="rounded=0;whiteSpace=wrap;html=1;fontSize=9;" parent="WIyWlLk6GJQsqaUBKTNV-1" vertex="1">
                    <mxGeometry x="452.30483271375465" y="180" width="22.304832713754646" height="20" as="geometry"/>
                </mxCell>
                <mxCell id="Z5hQmFH2F7mChiqIoMt5-292" value="" style="edgeStyle=none;rounded=0;orthogonalLoop=1;jettySize=auto;html=1;fontSize=9;exitX=0.5;exitY=1;exitDx=0;exitDy=0;entryX=0.5;entryY=0;entryDx=0;entryDy=0;endArrow=none;endFill=0;" parent="WIyWlLk6GJQsqaUBKTNV-1" source="Z5hQmFH2F7mChiqIoMt5-291" target="Z5hQmFH2F7mChiqIoMt5-297" edge="1">
                    <mxGeometry relative="1" as="geometry"/>
                </mxCell>
                <mxCell id="Z5hQmFH2F7mChiqIoMt5-293" value="" style="edgeStyle=none;rounded=0;orthogonalLoop=1;jettySize=auto;html=1;fontSize=9;exitX=0.5;exitY=1;exitDx=0;exitDy=0;entryX=0.5;entryY=0;entryDx=0;entryDy=0;endArrow=none;endFill=0;" parent="WIyWlLk6GJQsqaUBKTNV-1" source="Z5hQmFH2F7mChiqIoMt5-291" target="Z5hQmFH2F7mChiqIoMt5-295" edge="1">
                    <mxGeometry relative="1" as="geometry">
                        <mxPoint x="441.1524163568773" y="140" as="sourcePoint"/>
                    </mxGeometry>
                </mxCell>
                <object label="" branch="0" id="Z5hQmFH2F7mChiqIoMt5-294">
                    <mxCell style="group;fontSize=9;" parent="WIyWlLk6GJQsqaUBKTNV-1" vertex="1" connectable="0">
                        <mxGeometry x="430" y="220" width="66.17100371747212" height="20" as="geometry"/>
                    </mxCell>
                </object>
                <mxCell id="Z5hQmFH2F7mChiqIoMt5-295" value="" style="rounded=0;whiteSpace=wrap;html=1;fontSize=9;" parent="Z5hQmFH2F7mChiqIoMt5-294" vertex="1">
                    <mxGeometry width="22.304832713754646" height="20" as="geometry"/>
                </mxCell>
                <mxCell id="Z5hQmFH2F7mChiqIoMt5-296" value="" style="rounded=0;whiteSpace=wrap;html=1;fontSize=9;" parent="Z5hQmFH2F7mChiqIoMt5-294" vertex="1">
                    <mxGeometry x="22.304832713754646" width="22.304832713754646" height="20" as="geometry"/>
                </mxCell>
                <mxCell id="Z5hQmFH2F7mChiqIoMt5-297" value="" style="rounded=0;whiteSpace=wrap;html=1;fontSize=9;" parent="Z5hQmFH2F7mChiqIoMt5-294" vertex="1">
                    <mxGeometry x="43.86617100371747" width="22.304832713754646" height="20" as="geometry"/>
                </mxCell>
                <mxCell id="Z5hQmFH2F7mChiqIoMt5-298" value="" style="edgeStyle=none;rounded=0;orthogonalLoop=1;jettySize=auto;html=1;fontSize=9;entryX=0.5;entryY=0;entryDx=0;entryDy=0;endArrow=none;endFill=0;" parent="WIyWlLk6GJQsqaUBKTNV-1" source="Z5hQmFH2F7mChiqIoMt5-300" target="Z5hQmFH2F7mChiqIoMt5-305" edge="1">
                    <mxGeometry relative="1" as="geometry">
                        <mxPoint x="529.6272490706319" y="280" as="targetPoint"/>
                    </mxGeometry>
                </mxCell>
                <mxCell id="Z5hQmFH2F7mChiqIoMt5-299" value="" style="edgeStyle=none;rounded=0;orthogonalLoop=1;jettySize=auto;html=1;fontSize=9;endArrow=none;endFill=0;" parent="WIyWlLk6GJQsqaUBKTNV-1" source="Z5hQmFH2F7mChiqIoMt5-316" target="Z5hQmFH2F7mChiqIoMt5-300" edge="1">
                    <mxGeometry relative="1" as="geometry"/>
                </mxCell>
                <mxCell id="Z5hQmFH2F7mChiqIoMt5-300" value="S-" style="rounded=0;whiteSpace=wrap;html=1;fontSize=9;" parent="WIyWlLk6GJQsqaUBKTNV-1" vertex="1">
                    <mxGeometry x="518.4748327137546" y="180" width="22.304832713754646" height="20" as="geometry"/>
                </mxCell>
                <mxCell id="Z5hQmFH2F7mChiqIoMt5-301" value="" style="edgeStyle=none;rounded=0;orthogonalLoop=1;jettySize=auto;html=1;fontSize=9;exitX=0.5;exitY=1;exitDx=0;exitDy=0;entryX=0.5;entryY=0;entryDx=0;entryDy=0;endArrow=none;endFill=0;" parent="WIyWlLk6GJQsqaUBKTNV-1" source="Z5hQmFH2F7mChiqIoMt5-300" target="Z5hQmFH2F7mChiqIoMt5-306" edge="1">
                    <mxGeometry relative="1" as="geometry"/>
                </mxCell>
                <mxCell id="Z5hQmFH2F7mChiqIoMt5-302" value="" style="edgeStyle=none;rounded=0;orthogonalLoop=1;jettySize=auto;html=1;fontSize=9;exitX=0.5;exitY=1;exitDx=0;exitDy=0;entryX=0.5;entryY=0;entryDx=0;entryDy=0;endArrow=none;endFill=0;" parent="WIyWlLk6GJQsqaUBKTNV-1" source="Z5hQmFH2F7mChiqIoMt5-300" target="Z5hQmFH2F7mChiqIoMt5-304" edge="1">
                    <mxGeometry relative="1" as="geometry">
                        <mxPoint x="507.32241635687734" y="140" as="sourcePoint"/>
                    </mxGeometry>
                </mxCell>
                <object label="" branch="0" id="Z5hQmFH2F7mChiqIoMt5-303">
                    <mxCell style="group;fontSize=9;" parent="WIyWlLk6GJQsqaUBKTNV-1" vertex="1" connectable="0">
                        <mxGeometry x="496.17" y="220" width="66.17100371747212" height="20" as="geometry"/>
                    </mxCell>
                </object>
                <mxCell id="Z5hQmFH2F7mChiqIoMt5-304" value="C" style="rounded=0;whiteSpace=wrap;html=1;fontSize=9;" parent="Z5hQmFH2F7mChiqIoMt5-303" vertex="1">
                    <mxGeometry width="22.304832713754646" height="20" as="geometry"/>
                </mxCell>
                <mxCell id="Z5hQmFH2F7mChiqIoMt5-305" value="" style="rounded=0;whiteSpace=wrap;html=1;fontSize=9;" parent="Z5hQmFH2F7mChiqIoMt5-303" vertex="1">
                    <mxGeometry x="22.304832713754646" width="22.304832713754646" height="20" as="geometry"/>
                </mxCell>
                <mxCell id="Z5hQmFH2F7mChiqIoMt5-306" value="" style="rounded=0;whiteSpace=wrap;html=1;fontSize=9;" parent="Z5hQmFH2F7mChiqIoMt5-303" vertex="1">
                    <mxGeometry x="43.86617100371747" width="22.304832713754646" height="20" as="geometry"/>
                </mxCell>
                <mxCell id="Z5hQmFH2F7mChiqIoMt5-307" value="" style="edgeStyle=none;rounded=0;orthogonalLoop=1;jettySize=auto;html=1;fontSize=9;entryX=0.5;entryY=0;entryDx=0;entryDy=0;endArrow=none;endFill=0;" parent="WIyWlLk6GJQsqaUBKTNV-1" source="Z5hQmFH2F7mChiqIoMt5-309" target="Z5hQmFH2F7mChiqIoMt5-314" edge="1">
                    <mxGeometry relative="1" as="geometry">
                        <mxPoint x="595.797249070632" y="280" as="targetPoint"/>
                    </mxGeometry>
                </mxCell>
                <mxCell id="Z5hQmFH2F7mChiqIoMt5-308" value="" style="edgeStyle=none;rounded=0;orthogonalLoop=1;jettySize=auto;html=1;fontSize=9;exitX=0.5;exitY=1;exitDx=0;exitDy=0;endArrow=none;endFill=0;entryX=0.5;entryY=0;entryDx=0;entryDy=0;" parent="WIyWlLk6GJQsqaUBKTNV-1" source="Z5hQmFH2F7mChiqIoMt5-316" target="Z5hQmFH2F7mChiqIoMt5-309" edge="1">
                    <mxGeometry relative="1" as="geometry">
                        <mxPoint x="595.797249070632" y="100" as="sourcePoint"/>
                    </mxGeometry>
                </mxCell>
                <mxCell id="Z5hQmFH2F7mChiqIoMt5-309" value="S-" style="rounded=0;whiteSpace=wrap;html=1;fontSize=9;" parent="WIyWlLk6GJQsqaUBKTNV-1" vertex="1">
                    <mxGeometry x="584.6448327137547" y="180" width="22.304832713754646" height="20" as="geometry"/>
                </mxCell>
                <mxCell id="Z5hQmFH2F7mChiqIoMt5-310" value="" style="edgeStyle=none;rounded=0;orthogonalLoop=1;jettySize=auto;html=1;fontSize=9;exitX=0.5;exitY=1;exitDx=0;exitDy=0;entryX=0.5;entryY=0;entryDx=0;entryDy=0;endArrow=none;endFill=0;" parent="WIyWlLk6GJQsqaUBKTNV-1" source="Z5hQmFH2F7mChiqIoMt5-309" target="Z5hQmFH2F7mChiqIoMt5-315" edge="1">
                    <mxGeometry relative="1" as="geometry"/>
                </mxCell>
                <mxCell id="Z5hQmFH2F7mChiqIoMt5-311" value="" style="edgeStyle=none;rounded=0;orthogonalLoop=1;jettySize=auto;html=1;fontSize=9;exitX=0.5;exitY=1;exitDx=0;exitDy=0;entryX=0.5;entryY=0;entryDx=0;entryDy=0;endArrow=none;endFill=0;" parent="WIyWlLk6GJQsqaUBKTNV-1" source="Z5hQmFH2F7mChiqIoMt5-309" target="Z5hQmFH2F7mChiqIoMt5-313" edge="1">
                    <mxGeometry relative="1" as="geometry">
                        <mxPoint x="573.4924163568774" y="140" as="sourcePoint"/>
                    </mxGeometry>
                </mxCell>
                <object label="" branch="0" id="Z5hQmFH2F7mChiqIoMt5-312">
                    <mxCell style="group;fontSize=9;" parent="WIyWlLk6GJQsqaUBKTNV-1" vertex="1" connectable="0">
                        <mxGeometry x="562.34" y="220" width="66.17100371747212" height="20" as="geometry"/>
                    </mxCell>
                </object>
                <mxCell id="Z5hQmFH2F7mChiqIoMt5-313" value="" style="rounded=0;whiteSpace=wrap;html=1;fontSize=9;" parent="Z5hQmFH2F7mChiqIoMt5-312" vertex="1">
                    <mxGeometry width="22.304832713754646" height="20" as="geometry"/>
                </mxCell>
                <mxCell id="Z5hQmFH2F7mChiqIoMt5-314" value="" style="rounded=0;whiteSpace=wrap;html=1;fontSize=9;" parent="Z5hQmFH2F7mChiqIoMt5-312" vertex="1">
                    <mxGeometry x="22.304832713754646" width="22.304832713754646" height="20" as="geometry"/>
                </mxCell>
                <mxCell id="Z5hQmFH2F7mChiqIoMt5-315" value="" style="rounded=0;whiteSpace=wrap;html=1;fontSize=9;" parent="Z5hQmFH2F7mChiqIoMt5-312" vertex="1">
                    <mxGeometry x="43.86617100371747" width="22.304832713754646" height="20" as="geometry"/>
                </mxCell>
                <mxCell id="Z5hQmFH2F7mChiqIoMt5-320" value="" style="edgeStyle=none;rounded=0;orthogonalLoop=1;jettySize=auto;html=1;fontSize=9;endArrow=none;endFill=0;entryX=0.5;entryY=1;entryDx=0;entryDy=0;exitX=0.5;exitY=0;exitDx=0;exitDy=0;" parent="WIyWlLk6GJQsqaUBKTNV-1" source="Z5hQmFH2F7mChiqIoMt5-316" target="Z5hQmFH2F7mChiqIoMt5-317" edge="1">
                    <mxGeometry relative="1" as="geometry">
                        <mxPoint x="529.6272490706319" y="60" as="targetPoint"/>
                    </mxGeometry>
                </mxCell>
                <mxCell id="Z5hQmFH2F7mChiqIoMt5-316" value="C2" style="rounded=0;whiteSpace=wrap;html=1;fontSize=9;" parent="WIyWlLk6GJQsqaUBKTNV-1" vertex="1">
                    <mxGeometry x="518.4748327137546" y="140" width="22.304832713754646" height="20" as="geometry"/>
                </mxCell>
                <mxCell id="Z5hQmFH2F7mChiqIoMt5-317" value="S+" style="rounded=0;whiteSpace=wrap;html=1;fontSize=9;" parent="WIyWlLk6GJQsqaUBKTNV-1" vertex="1">
                    <mxGeometry x="318.4748327137546" y="90" width="22.304832713754646" height="20" as="geometry"/>
                </mxCell>
                <mxCell id="nwHU5ip1WEYhQN9irnRJ-285" value="&lt;div style=&quot;font-size: 14px&quot;&gt;&lt;span style=&quot;white-space: pre&quot;&gt;&lt;b&gt;Atomic game search tree&lt;/b&gt;&lt;/span&gt;&lt;b style=&quot;white-space: pre&quot;&gt; &lt;/b&gt;&lt;/div&gt;" style="rounded=0;whiteSpace=wrap;html=1;fontSize=9;align=center;" parent="WIyWlLk6GJQsqaUBKTNV-1" vertex="1">
                    <mxGeometry x="18.26" y="30" width="251.74" height="50" as="geometry"/>
                </mxCell>
                <mxCell id="RyKBKjVpuNBoleXuHlPU-10" value="" style="edgeStyle=none;rounded=0;orthogonalLoop=1;jettySize=auto;html=1;fontSize=9;entryX=0.5;entryY=0;entryDx=0;entryDy=0;endArrow=none;endFill=0;" parent="WIyWlLk6GJQsqaUBKTNV-1" source="RyKBKjVpuNBoleXuHlPU-11" target="RyKBKjVpuNBoleXuHlPU-16" edge="1">
                    <mxGeometry relative="1" as="geometry">
                        <mxPoint x="195.797249070632" y="280" as="targetPoint"/>
                    </mxGeometry>
                </mxCell>
                <mxCell id="RyKBKjVpuNBoleXuHlPU-11" value="S-" style="rounded=0;whiteSpace=wrap;html=1;fontSize=9;" parent="WIyWlLk6GJQsqaUBKTNV-1" vertex="1">
                    <mxGeometry x="184.64483271375462" y="180" width="22.304832713754646" height="20" as="geometry"/>
                </mxCell>
                <mxCell id="RyKBKjVpuNBoleXuHlPU-12" value="" style="edgeStyle=none;rounded=0;orthogonalLoop=1;jettySize=auto;html=1;fontSize=9;entryX=0.5;entryY=0;entryDx=0;entryDy=0;endArrow=none;endFill=0;" parent="WIyWlLk6GJQsqaUBKTNV-1" target="RyKBKjVpuNBoleXuHlPU-17" edge="1">
                    <mxGeometry relative="1" as="geometry">
                        <mxPoint x="196.17000000000002" y="200" as="sourcePoint"/>
                    </mxGeometry>
                </mxCell>
                <mxCell id="RyKBKjVpuNBoleXuHlPU-13" value="" style="edgeStyle=none;rounded=0;orthogonalLoop=1;jettySize=auto;html=1;fontSize=9;exitX=0.5;exitY=1;exitDx=0;exitDy=0;entryX=0.5;entryY=0;entryDx=0;entryDy=0;endArrow=none;endFill=0;" parent="WIyWlLk6GJQsqaUBKTNV-1" source="RyKBKjVpuNBoleXuHlPU-11" target="RyKBKjVpuNBoleXuHlPU-15" edge="1">
                    <mxGeometry relative="1" as="geometry">
                        <mxPoint x="173.49241635687736" y="140" as="sourcePoint"/>
                    </mxGeometry>
                </mxCell>
                <object label="" branch="0" id="RyKBKjVpuNBoleXuHlPU-14">
                    <mxCell style="group;fontSize=9;" parent="WIyWlLk6GJQsqaUBKTNV-1" vertex="1" connectable="0">
                        <mxGeometry x="162.34000000000003" y="220" width="66.17100371747212" height="20" as="geometry"/>
                    </mxCell>
                </object>
                <mxCell id="RyKBKjVpuNBoleXuHlPU-15" value="" style="rounded=0;whiteSpace=wrap;html=1;fontSize=9;" parent="RyKBKjVpuNBoleXuHlPU-14" vertex="1">
                    <mxGeometry width="22.304832713754646" height="20" as="geometry"/>
                </mxCell>
                <mxCell id="RyKBKjVpuNBoleXuHlPU-16" value="" style="rounded=0;whiteSpace=wrap;html=1;fontSize=9;" parent="RyKBKjVpuNBoleXuHlPU-14" vertex="1">
                    <mxGeometry x="22.304832713754646" width="22.304832713754646" height="20" as="geometry"/>
                </mxCell>
                <mxCell id="RyKBKjVpuNBoleXuHlPU-17" value="" style="rounded=0;whiteSpace=wrap;html=1;fontSize=9;" parent="RyKBKjVpuNBoleXuHlPU-14" vertex="1">
                    <mxGeometry x="43.86617100371747" width="22.304832713754646" height="20" as="geometry"/>
                </mxCell>
                <mxCell id="17" value="" style="edgeStyle=none;rounded=0;orthogonalLoop=1;jettySize=auto;html=1;fontSize=9;entryX=0.5;entryY=0;entryDx=0;entryDy=0;endArrow=none;endFill=0;" parent="WIyWlLk6GJQsqaUBKTNV-1" source="19" target="24" edge="1">
                    <mxGeometry relative="1" as="geometry">
                        <mxPoint x="74.02724907063197" y="540" as="targetPoint"/>
                    </mxGeometry>
                </mxCell>
                <mxCell id="18" value="" style="edgeStyle=none;rounded=0;orthogonalLoop=1;jettySize=auto;html=1;fontSize=9;exitX=0.5;exitY=1;exitDx=0;exitDy=0;endArrow=none;endFill=0;entryX=0.5;entryY=0;entryDx=0;entryDy=0;" parent="WIyWlLk6GJQsqaUBKTNV-1" source="37" target="19" edge="1">
                    <mxGeometry relative="1" as="geometry">
                        <mxPoint x="74.02724907063197" y="360" as="sourcePoint"/>
                    </mxGeometry>
                </mxCell>
                <mxCell id="19" value="S+" style="rounded=0;whiteSpace=wrap;html=1;fontSize=9;" parent="WIyWlLk6GJQsqaUBKTNV-1" vertex="1">
                    <mxGeometry x="62.87483271375464" y="440" width="22.304832713754646" height="20" as="geometry"/>
                </mxCell>
                <mxCell id="20" value="" style="edgeStyle=none;rounded=0;orthogonalLoop=1;jettySize=auto;html=1;fontSize=9;entryX=0.5;entryY=0;entryDx=0;entryDy=0;endArrow=none;endFill=0;" parent="WIyWlLk6GJQsqaUBKTNV-1" target="25" edge="1">
                    <mxGeometry relative="1" as="geometry">
                        <mxPoint x="73.5700000000001" y="460" as="sourcePoint"/>
                    </mxGeometry>
                </mxCell>
                <mxCell id="21" value="" style="edgeStyle=none;rounded=0;orthogonalLoop=1;jettySize=auto;html=1;fontSize=9;exitX=0.5;exitY=1;exitDx=0;exitDy=0;entryX=0.5;entryY=0;entryDx=0;entryDy=0;endArrow=none;endFill=0;" parent="WIyWlLk6GJQsqaUBKTNV-1" source="19" target="23" edge="1">
                    <mxGeometry relative="1" as="geometry">
                        <mxPoint x="51.72241635687732" y="400" as="sourcePoint"/>
                    </mxGeometry>
                </mxCell>
                <object label="" branch="0" id="22">
                    <mxCell style="group;fontSize=9;" parent="WIyWlLk6GJQsqaUBKTNV-1" vertex="1" connectable="0">
                        <mxGeometry x="40.94" y="460" width="66.17100371747212" height="20" as="geometry"/>
                    </mxCell>
                </object>
                <mxCell id="23" value="C0" style="rounded=0;whiteSpace=wrap;html=1;fontSize=9;" parent="22" vertex="1">
                    <mxGeometry width="22.304832713754646" height="20" as="geometry"/>
                </mxCell>
                <mxCell id="24" value="C1" style="rounded=0;whiteSpace=wrap;html=1;fontSize=9;" parent="22" vertex="1">
                    <mxGeometry x="22.304832713754646" width="22.304832713754646" height="20" as="geometry"/>
                </mxCell>
                <mxCell id="25" value="C2" style="rounded=0;whiteSpace=wrap;html=1;fontSize=9;" parent="22" vertex="1">
                    <mxGeometry x="43.86617100371747" width="22.304832713754646" height="20" as="geometry"/>
                </mxCell>
                <mxCell id="26" value="" style="edgeStyle=none;rounded=0;orthogonalLoop=1;jettySize=auto;html=1;fontSize=9;entryX=0.5;entryY=0;entryDx=0;entryDy=0;endArrow=none;endFill=0;" parent="WIyWlLk6GJQsqaUBKTNV-1" source="28" target="33" edge="1">
                    <mxGeometry relative="1" as="geometry">
                        <mxPoint x="140.19724907063198" y="540" as="targetPoint"/>
                    </mxGeometry>
                </mxCell>
                <mxCell id="27" value="" style="edgeStyle=none;rounded=0;orthogonalLoop=1;jettySize=auto;html=1;fontSize=9;endArrow=none;endFill=0;exitX=0.5;exitY=1;exitDx=0;exitDy=0;entryX=0.5;entryY=0;entryDx=0;entryDy=0;" parent="WIyWlLk6GJQsqaUBKTNV-1" source="37" target="28" edge="1">
                    <mxGeometry relative="1" as="geometry"/>
                </mxCell>
                <mxCell id="28" value="S-" style="rounded=0;whiteSpace=wrap;html=1;fontSize=9;" parent="WIyWlLk6GJQsqaUBKTNV-1" vertex="1">
                    <mxGeometry x="129.04483271375463" y="440" width="22.304832713754646" height="20" as="geometry"/>
                </mxCell>
                <mxCell id="29" value="" style="edgeStyle=none;rounded=0;orthogonalLoop=1;jettySize=auto;html=1;fontSize=9;exitX=0.5;exitY=1;exitDx=0;exitDy=0;entryX=0.5;entryY=0;entryDx=0;entryDy=0;endArrow=none;endFill=0;" parent="WIyWlLk6GJQsqaUBKTNV-1" source="28" target="34" edge="1">
                    <mxGeometry relative="1" as="geometry"/>
                </mxCell>
                <mxCell id="30" value="" style="edgeStyle=none;rounded=0;orthogonalLoop=1;jettySize=auto;html=1;fontSize=9;exitX=0.5;exitY=1;exitDx=0;exitDy=0;entryX=0.5;entryY=0;entryDx=0;entryDy=0;endArrow=none;endFill=0;" parent="WIyWlLk6GJQsqaUBKTNV-1" source="28" target="32" edge="1">
                    <mxGeometry relative="1" as="geometry">
                        <mxPoint x="117.89241635687733" y="400" as="sourcePoint"/>
                    </mxGeometry>
                </mxCell>
                <object label="" branch="0" id="31">
                    <mxCell style="group;fontSize=9;" parent="WIyWlLk6GJQsqaUBKTNV-1" vertex="1" connectable="0">
                        <mxGeometry x="107.11000000000001" y="460" width="66.17100371747212" height="20" as="geometry"/>
                    </mxCell>
                </object>
                <mxCell id="32" value="" style="rounded=0;whiteSpace=wrap;html=1;fontSize=9;" parent="31" vertex="1">
                    <mxGeometry width="22.304832713754646" height="20" as="geometry"/>
                </mxCell>
                <mxCell id="33" value="" style="rounded=0;whiteSpace=wrap;html=1;fontSize=9;" parent="31" vertex="1">
                    <mxGeometry x="22.304832713754646" width="22.304832713754646" height="20" as="geometry"/>
                </mxCell>
                <mxCell id="34" value="" style="rounded=0;whiteSpace=wrap;html=1;fontSize=9;" parent="31" vertex="1">
                    <mxGeometry x="43.86617100371747" width="22.304832713754646" height="20" as="geometry"/>
                </mxCell>
                <mxCell id="35" value="" style="edgeStyle=none;rounded=0;orthogonalLoop=1;jettySize=auto;html=1;fontSize=9;exitX=0.5;exitY=1;exitDx=0;exitDy=0;endArrow=none;endFill=0;exitPerimeter=0;entryX=0.5;entryY=0;entryDx=0;entryDy=0;" parent="WIyWlLk6GJQsqaUBKTNV-1" source="37" edge="1">
                    <mxGeometry relative="1" as="geometry">
                        <mxPoint x="206.36724907063197" y="360" as="sourcePoint"/>
                        <mxPoint x="206.3672490706321" y="440" as="targetPoint"/>
                    </mxGeometry>
                </mxCell>
                <mxCell id="36" value="" style="edgeStyle=none;rounded=0;orthogonalLoop=1;jettySize=auto;html=1;fontSize=9;endArrow=none;endFill=0;entryX=0.5;entryY=1;entryDx=0;entryDy=0;exitX=0.5;exitY=0;exitDx=0;exitDy=0;" parent="WIyWlLk6GJQsqaUBKTNV-1" source="37" target="96" edge="1">
                    <mxGeometry relative="1" as="geometry">
                        <mxPoint x="140.19724907063195" y="320" as="targetPoint"/>
                    </mxGeometry>
                </mxCell>
                <mxCell id="37" value="C0" style="rounded=0;whiteSpace=wrap;html=1;fontSize=9;" parent="WIyWlLk6GJQsqaUBKTNV-1" vertex="1">
                    <mxGeometry x="306.74483271375465" y="370" width="22.304832713754646" height="20" as="geometry"/>
                </mxCell>
                <mxCell id="38" value="" style="edgeStyle=none;rounded=0;orthogonalLoop=1;jettySize=auto;html=1;fontSize=9;entryX=0.5;entryY=0;entryDx=0;entryDy=0;endArrow=none;endFill=0;" parent="WIyWlLk6GJQsqaUBKTNV-1" source="40" target="45" edge="1">
                    <mxGeometry relative="1" as="geometry">
                        <mxPoint x="274.02724907063197" y="540" as="targetPoint"/>
                    </mxGeometry>
                </mxCell>
                <mxCell id="39" value="" style="edgeStyle=none;rounded=0;orthogonalLoop=1;jettySize=auto;html=1;fontSize=9;exitX=0.5;exitY=1;exitDx=0;exitDy=0;endArrow=none;endFill=0;entryX=0.5;entryY=0;entryDx=0;entryDy=0;" parent="WIyWlLk6GJQsqaUBKTNV-1" source="66" target="40" edge="1">
                    <mxGeometry relative="1" as="geometry">
                        <mxPoint x="274.02724907063197" y="360" as="sourcePoint"/>
                    </mxGeometry>
                </mxCell>
                <mxCell id="40" value="S+" style="rounded=0;whiteSpace=wrap;html=1;fontSize=9;" parent="WIyWlLk6GJQsqaUBKTNV-1" vertex="1">
                    <mxGeometry x="262.87483271375464" y="440" width="22.304832713754646" height="20" as="geometry"/>
                </mxCell>
                <mxCell id="41" value="" style="edgeStyle=none;rounded=0;orthogonalLoop=1;jettySize=auto;html=1;fontSize=9;exitX=0.5;exitY=1;exitDx=0;exitDy=0;entryX=0.5;entryY=0;entryDx=0;entryDy=0;endArrow=none;endFill=0;" parent="WIyWlLk6GJQsqaUBKTNV-1" source="40" target="46" edge="1">
                    <mxGeometry relative="1" as="geometry"/>
                </mxCell>
                <mxCell id="42" value="" style="edgeStyle=none;rounded=0;orthogonalLoop=1;jettySize=auto;html=1;fontSize=9;exitX=0.5;exitY=1;exitDx=0;exitDy=0;entryX=0.5;entryY=0;entryDx=0;entryDy=0;endArrow=none;endFill=0;" parent="WIyWlLk6GJQsqaUBKTNV-1" source="40" target="44" edge="1">
                    <mxGeometry relative="1" as="geometry">
                        <mxPoint x="251.72241635687732" y="400" as="sourcePoint"/>
                    </mxGeometry>
                </mxCell>
                <object label="" branch="0" id="43">
                    <mxCell style="group;fontSize=9;" parent="WIyWlLk6GJQsqaUBKTNV-1" vertex="1" connectable="0">
                        <mxGeometry x="240.94" y="460" width="66.17100371747212" height="20" as="geometry"/>
                    </mxCell>
                </object>
                <mxCell id="44" value="" style="rounded=0;whiteSpace=wrap;html=1;fontSize=9;" parent="43" vertex="1">
                    <mxGeometry width="22.304832713754646" height="20" as="geometry"/>
                </mxCell>
                <mxCell id="45" value="" style="rounded=0;whiteSpace=wrap;html=1;fontSize=9;" parent="43" vertex="1">
                    <mxGeometry x="22.304832713754646" width="22.304832713754646" height="20" as="geometry"/>
                </mxCell>
                <mxCell id="46" value="" style="rounded=0;whiteSpace=wrap;html=1;fontSize=9;" parent="43" vertex="1">
                    <mxGeometry x="43.86617100371747" width="22.304832713754646" height="20" as="geometry"/>
                </mxCell>
                <mxCell id="47" value="" style="edgeStyle=none;rounded=0;orthogonalLoop=1;jettySize=auto;html=1;fontSize=9;entryX=0.5;entryY=0;entryDx=0;entryDy=0;endArrow=none;endFill=0;" parent="WIyWlLk6GJQsqaUBKTNV-1" source="49" target="54" edge="1">
                    <mxGeometry relative="1" as="geometry">
                        <mxPoint x="340.197249070632" y="540" as="targetPoint"/>
                    </mxGeometry>
                </mxCell>
                <mxCell id="48" value="" style="edgeStyle=none;rounded=0;orthogonalLoop=1;jettySize=auto;html=1;fontSize=9;endArrow=none;endFill=0;" parent="WIyWlLk6GJQsqaUBKTNV-1" source="66" target="49" edge="1">
                    <mxGeometry relative="1" as="geometry"/>
                </mxCell>
                <mxCell id="49" value="S-" style="rounded=0;whiteSpace=wrap;html=1;fontSize=9;" parent="WIyWlLk6GJQsqaUBKTNV-1" vertex="1">
                    <mxGeometry x="329.0448327137546" y="440" width="22.304832713754646" height="20" as="geometry"/>
                </mxCell>
                <mxCell id="50" value="" style="edgeStyle=none;rounded=0;orthogonalLoop=1;jettySize=auto;html=1;fontSize=9;entryX=0.5;entryY=0;entryDx=0;entryDy=0;endArrow=none;endFill=0;" parent="WIyWlLk6GJQsqaUBKTNV-1" target="55" edge="1">
                    <mxGeometry relative="1" as="geometry">
                        <mxPoint x="340.5700000000001" y="460" as="sourcePoint"/>
                    </mxGeometry>
                </mxCell>
                <mxCell id="51" value="" style="edgeStyle=none;rounded=0;orthogonalLoop=1;jettySize=auto;html=1;fontSize=9;exitX=0.5;exitY=1;exitDx=0;exitDy=0;entryX=0.5;entryY=0;entryDx=0;entryDy=0;endArrow=none;endFill=0;" parent="WIyWlLk6GJQsqaUBKTNV-1" source="49" target="53" edge="1">
                    <mxGeometry relative="1" as="geometry">
                        <mxPoint x="317.89241635687733" y="400" as="sourcePoint"/>
                    </mxGeometry>
                </mxCell>
                <object label="" branch="0" id="52">
                    <mxCell style="group;fontSize=9;" parent="WIyWlLk6GJQsqaUBKTNV-1" vertex="1" connectable="0">
                        <mxGeometry x="307.48" y="460" width="66.17100371747212" height="20" as="geometry"/>
                    </mxCell>
                </object>
                <mxCell id="53" value="" style="rounded=0;whiteSpace=wrap;html=1;fontSize=9;" parent="52" vertex="1">
                    <mxGeometry width="22.304832713754646" height="20" as="geometry"/>
                </mxCell>
                <mxCell id="54" value="" style="rounded=0;whiteSpace=wrap;html=1;fontSize=9;" parent="52" vertex="1">
                    <mxGeometry x="22.304832713754646" width="22.304832713754646" height="20" as="geometry"/>
                </mxCell>
                <mxCell id="55" value="" style="rounded=0;whiteSpace=wrap;html=1;fontSize=9;" parent="52" vertex="1">
                    <mxGeometry x="43.86617100371747" width="22.304832713754646" height="20" as="geometry"/>
                </mxCell>
                <mxCell id="56" value="" style="edgeStyle=none;rounded=0;orthogonalLoop=1;jettySize=auto;html=1;fontSize=9;entryX=0.5;entryY=0;entryDx=0;entryDy=0;endArrow=none;endFill=0;" parent="WIyWlLk6GJQsqaUBKTNV-1" source="58" target="63" edge="1">
                    <mxGeometry relative="1" as="geometry">
                        <mxPoint x="406.367249070632" y="540" as="targetPoint"/>
                    </mxGeometry>
                </mxCell>
                <mxCell id="57" value="" style="edgeStyle=none;rounded=0;orthogonalLoop=1;jettySize=auto;html=1;fontSize=9;exitX=0.5;exitY=1;exitDx=0;exitDy=0;endArrow=none;endFill=0;entryX=0.5;entryY=0;entryDx=0;entryDy=0;" parent="WIyWlLk6GJQsqaUBKTNV-1" source="66" target="58" edge="1">
                    <mxGeometry relative="1" as="geometry">
                        <mxPoint x="406.367249070632" y="360" as="sourcePoint"/>
                    </mxGeometry>
                </mxCell>
                <mxCell id="58" value="S-" style="rounded=0;whiteSpace=wrap;html=1;fontSize=9;" parent="WIyWlLk6GJQsqaUBKTNV-1" vertex="1">
                    <mxGeometry x="395.2148327137547" y="440" width="22.304832713754646" height="20" as="geometry"/>
                </mxCell>
                <mxCell id="59" value="" style="edgeStyle=none;rounded=0;orthogonalLoop=1;jettySize=auto;html=1;fontSize=9;entryX=0.5;entryY=0;entryDx=0;entryDy=0;endArrow=none;endFill=0;" parent="WIyWlLk6GJQsqaUBKTNV-1" target="64" edge="1">
                    <mxGeometry relative="1" as="geometry">
                        <mxPoint x="406.5700000000001" y="460" as="sourcePoint"/>
                    </mxGeometry>
                </mxCell>
                <mxCell id="60" value="" style="edgeStyle=none;rounded=0;orthogonalLoop=1;jettySize=auto;html=1;fontSize=9;exitX=0.5;exitY=1;exitDx=0;exitDy=0;entryX=0.5;entryY=0;entryDx=0;entryDy=0;endArrow=none;endFill=0;" parent="WIyWlLk6GJQsqaUBKTNV-1" source="58" target="62" edge="1">
                    <mxGeometry relative="1" as="geometry">
                        <mxPoint x="384.06241635687735" y="400" as="sourcePoint"/>
                    </mxGeometry>
                </mxCell>
                <object label="" branch="0" id="61">
                    <mxCell style="group;fontSize=9;" parent="WIyWlLk6GJQsqaUBKTNV-1" vertex="1" connectable="0">
                        <mxGeometry x="372.91" y="460" width="66.17100371747212" height="20" as="geometry"/>
                    </mxCell>
                </object>
                <mxCell id="62" value="" style="rounded=0;whiteSpace=wrap;html=1;fontSize=9;" parent="61" vertex="1">
                    <mxGeometry width="22.304832713754646" height="20" as="geometry"/>
                </mxCell>
                <mxCell id="63" value="" style="rounded=0;whiteSpace=wrap;html=1;fontSize=9;" parent="61" vertex="1">
                    <mxGeometry x="22.304832713754646" width="22.304832713754646" height="20" as="geometry"/>
                </mxCell>
                <mxCell id="64" value="" style="rounded=0;whiteSpace=wrap;html=1;fontSize=9;" parent="61" vertex="1">
                    <mxGeometry x="43.86617100371747" width="22.304832713754646" height="20" as="geometry"/>
                </mxCell>
                <mxCell id="65" value="" style="edgeStyle=none;rounded=0;orthogonalLoop=1;jettySize=auto;html=1;fontSize=9;endArrow=none;endFill=0;" parent="WIyWlLk6GJQsqaUBKTNV-1" source="66" target="96" edge="1">
                    <mxGeometry relative="1" as="geometry"/>
                </mxCell>
                <mxCell id="66" value="C1" style="rounded=0;whiteSpace=wrap;html=1;fontSize=9;" parent="WIyWlLk6GJQsqaUBKTNV-1" vertex="1">
                    <mxGeometry x="328.26483271375463" y="370" width="22.304832713754646" height="20" as="geometry"/>
                </mxCell>
                <mxCell id="67" value="" style="edgeStyle=none;rounded=0;orthogonalLoop=1;jettySize=auto;html=1;fontSize=9;entryX=0.5;entryY=0;entryDx=0;entryDy=0;endArrow=none;endFill=0;" parent="WIyWlLk6GJQsqaUBKTNV-1" source="69" target="74" edge="1">
                    <mxGeometry relative="1" as="geometry">
                        <mxPoint x="474.02724907063197" y="540" as="targetPoint"/>
                    </mxGeometry>
                </mxCell>
                <mxCell id="68" value="" style="edgeStyle=none;rounded=0;orthogonalLoop=1;jettySize=auto;html=1;fontSize=9;exitX=0.5;exitY=1;exitDx=0;exitDy=0;endArrow=none;endFill=0;entryX=0.5;entryY=0;entryDx=0;entryDy=0;" parent="WIyWlLk6GJQsqaUBKTNV-1" source="95" target="69" edge="1">
                    <mxGeometry relative="1" as="geometry">
                        <mxPoint x="474.02724907063197" y="360" as="sourcePoint"/>
                    </mxGeometry>
                </mxCell>
                <mxCell id="69" value="S+" style="rounded=0;whiteSpace=wrap;html=1;fontSize=9;" parent="WIyWlLk6GJQsqaUBKTNV-1" vertex="1">
                    <mxGeometry x="462.87483271375464" y="440" width="22.304832713754646" height="20" as="geometry"/>
                </mxCell>
                <mxCell id="70" value="" style="edgeStyle=none;rounded=0;orthogonalLoop=1;jettySize=auto;html=1;fontSize=9;exitX=0.5;exitY=1;exitDx=0;exitDy=0;entryX=0.5;entryY=0;entryDx=0;entryDy=0;endArrow=none;endFill=0;" parent="WIyWlLk6GJQsqaUBKTNV-1" source="69" target="75" edge="1">
                    <mxGeometry relative="1" as="geometry"/>
                </mxCell>
                <mxCell id="71" value="" style="edgeStyle=none;rounded=0;orthogonalLoop=1;jettySize=auto;html=1;fontSize=9;exitX=0.5;exitY=1;exitDx=0;exitDy=0;entryX=0.5;entryY=0;entryDx=0;entryDy=0;endArrow=none;endFill=0;" parent="WIyWlLk6GJQsqaUBKTNV-1" source="69" target="73" edge="1">
                    <mxGeometry relative="1" as="geometry">
                        <mxPoint x="451.7224163568773" y="400" as="sourcePoint"/>
                    </mxGeometry>
                </mxCell>
                <object label="" branch="0" id="72">
                    <mxCell style="group;fontSize=9;" parent="WIyWlLk6GJQsqaUBKTNV-1" vertex="1" connectable="0">
                        <mxGeometry x="440.57" y="460" width="66.17100371747212" height="20" as="geometry"/>
                    </mxCell>
                </object>
                <mxCell id="73" value="" style="rounded=0;whiteSpace=wrap;html=1;fontSize=9;" parent="72" vertex="1">
                    <mxGeometry width="22.304832713754646" height="20" as="geometry"/>
                </mxCell>
                <mxCell id="74" value="" style="rounded=0;whiteSpace=wrap;html=1;fontSize=9;" parent="72" vertex="1">
                    <mxGeometry x="22.304832713754646" width="22.304832713754646" height="20" as="geometry"/>
                </mxCell>
                <mxCell id="75" value="" style="rounded=0;whiteSpace=wrap;html=1;fontSize=9;" parent="72" vertex="1">
                    <mxGeometry x="43.86617100371747" width="22.304832713754646" height="20" as="geometry"/>
                </mxCell>
                <mxCell id="76" value="" style="edgeStyle=none;rounded=0;orthogonalLoop=1;jettySize=auto;html=1;fontSize=9;entryX=0.5;entryY=0;entryDx=0;entryDy=0;endArrow=none;endFill=0;" parent="WIyWlLk6GJQsqaUBKTNV-1" source="78" target="83" edge="1">
                    <mxGeometry relative="1" as="geometry">
                        <mxPoint x="540.197249070632" y="540" as="targetPoint"/>
                    </mxGeometry>
                </mxCell>
                <mxCell id="77" value="" style="edgeStyle=none;rounded=0;orthogonalLoop=1;jettySize=auto;html=1;fontSize=9;endArrow=none;endFill=0;exitX=0.5;exitY=1;exitDx=0;exitDy=0;entryX=0.5;entryY=0;entryDx=0;entryDy=0;" parent="WIyWlLk6GJQsqaUBKTNV-1" source="95" target="78" edge="1">
                    <mxGeometry relative="1" as="geometry"/>
                </mxCell>
                <mxCell id="78" value="S-" style="rounded=0;whiteSpace=wrap;html=1;fontSize=9;" parent="WIyWlLk6GJQsqaUBKTNV-1" vertex="1">
                    <mxGeometry x="529.0448327137547" y="440" width="22.304832713754646" height="20" as="geometry"/>
                </mxCell>
                <mxCell id="79" value="" style="edgeStyle=none;rounded=0;orthogonalLoop=1;jettySize=auto;html=1;fontSize=9;exitX=0.5;exitY=1;exitDx=0;exitDy=0;entryX=0.5;entryY=0;entryDx=0;entryDy=0;endArrow=none;endFill=0;" parent="WIyWlLk6GJQsqaUBKTNV-1" source="78" target="84" edge="1">
                    <mxGeometry relative="1" as="geometry"/>
                </mxCell>
                <mxCell id="80" value="" style="edgeStyle=none;rounded=0;orthogonalLoop=1;jettySize=auto;html=1;fontSize=9;exitX=0.5;exitY=1;exitDx=0;exitDy=0;entryX=0.5;entryY=0;entryDx=0;entryDy=0;endArrow=none;endFill=0;" parent="WIyWlLk6GJQsqaUBKTNV-1" source="78" target="82" edge="1">
                    <mxGeometry relative="1" as="geometry">
                        <mxPoint x="517.8924163568774" y="400" as="sourcePoint"/>
                    </mxGeometry>
                </mxCell>
                <object label="" branch="0" id="81">
                    <mxCell style="group;fontSize=9;" parent="WIyWlLk6GJQsqaUBKTNV-1" vertex="1" connectable="0">
                        <mxGeometry x="507.11000000000007" y="460" width="66.17100371747212" height="20" as="geometry"/>
                    </mxCell>
                </object>
                <mxCell id="82" value="" style="rounded=0;whiteSpace=wrap;html=1;fontSize=9;" parent="81" vertex="1">
                    <mxGeometry width="22.304832713754646" height="20" as="geometry"/>
                </mxCell>
                <mxCell id="83" value="" style="rounded=0;whiteSpace=wrap;html=1;fontSize=9;" parent="81" vertex="1">
                    <mxGeometry x="22.304832713754646" width="22.304832713754646" height="20" as="geometry"/>
                </mxCell>
                <mxCell id="84" value="" style="rounded=0;whiteSpace=wrap;html=1;fontSize=9;" parent="81" vertex="1">
                    <mxGeometry x="43.86617100371747" width="22.304832713754646" height="20" as="geometry"/>
                </mxCell>
                <mxCell id="85" value="" style="edgeStyle=none;rounded=0;orthogonalLoop=1;jettySize=auto;html=1;fontSize=9;entryX=0.5;entryY=0;entryDx=0;entryDy=0;endArrow=none;endFill=0;" parent="WIyWlLk6GJQsqaUBKTNV-1" source="87" target="92" edge="1">
                    <mxGeometry relative="1" as="geometry">
                        <mxPoint x="606.367249070632" y="540" as="targetPoint"/>
                    </mxGeometry>
                </mxCell>
                <mxCell id="86" value="" style="edgeStyle=none;rounded=0;orthogonalLoop=1;jettySize=auto;html=1;fontSize=9;exitX=0.5;exitY=1;exitDx=0;exitDy=0;endArrow=none;endFill=0;entryX=0.5;entryY=0;entryDx=0;entryDy=0;" parent="WIyWlLk6GJQsqaUBKTNV-1" source="95" target="87" edge="1">
                    <mxGeometry relative="1" as="geometry">
                        <mxPoint x="606.367249070632" y="360" as="sourcePoint"/>
                    </mxGeometry>
                </mxCell>
                <mxCell id="87" value="S-" style="rounded=0;whiteSpace=wrap;html=1;fontSize=9;" parent="WIyWlLk6GJQsqaUBKTNV-1" vertex="1">
                    <mxGeometry x="595.2148327137547" y="440" width="22.304832713754646" height="20" as="geometry"/>
                </mxCell>
                <mxCell id="88" value="" style="edgeStyle=none;rounded=0;orthogonalLoop=1;jettySize=auto;html=1;fontSize=9;exitX=0.5;exitY=1;exitDx=0;exitDy=0;entryX=0.5;entryY=0;entryDx=0;entryDy=0;endArrow=none;endFill=0;" parent="WIyWlLk6GJQsqaUBKTNV-1" source="87" target="93" edge="1">
                    <mxGeometry relative="1" as="geometry"/>
                </mxCell>
                <mxCell id="89" value="" style="edgeStyle=none;rounded=0;orthogonalLoop=1;jettySize=auto;html=1;fontSize=9;exitX=0.5;exitY=1;exitDx=0;exitDy=0;entryX=0.5;entryY=0;entryDx=0;entryDy=0;endArrow=none;endFill=0;" parent="WIyWlLk6GJQsqaUBKTNV-1" source="87" target="91" edge="1">
                    <mxGeometry relative="1" as="geometry">
                        <mxPoint x="584.0624163568774" y="400" as="sourcePoint"/>
                    </mxGeometry>
                </mxCell>
                <object label="" branch="0" id="90">
                    <mxCell style="group;fontSize=9;" parent="WIyWlLk6GJQsqaUBKTNV-1" vertex="1" connectable="0">
                        <mxGeometry x="573.2800000000001" y="460" width="66.17100371747212" height="20" as="geometry"/>
                    </mxCell>
                </object>
                <mxCell id="91" value="" style="rounded=0;whiteSpace=wrap;html=1;fontSize=9;" parent="90" vertex="1">
                    <mxGeometry width="22.304832713754646" height="20" as="geometry"/>
                </mxCell>
                <mxCell id="92" value="" style="rounded=0;whiteSpace=wrap;html=1;fontSize=9;" parent="90" vertex="1">
                    <mxGeometry x="22.304832713754646" width="22.304832713754646" height="20" as="geometry"/>
                </mxCell>
                <mxCell id="93" value="" style="rounded=0;whiteSpace=wrap;html=1;fontSize=9;" parent="90" vertex="1">
                    <mxGeometry x="43.86617100371747" width="22.304832713754646" height="20" as="geometry"/>
                </mxCell>
                <mxCell id="94" value="" style="edgeStyle=none;rounded=0;orthogonalLoop=1;jettySize=auto;html=1;fontSize=9;endArrow=none;endFill=0;entryX=0.5;entryY=1;entryDx=0;entryDy=0;exitX=0.5;exitY=0;exitDx=0;exitDy=0;" parent="WIyWlLk6GJQsqaUBKTNV-1" source="95" target="96" edge="1">
                    <mxGeometry relative="1" as="geometry">
                        <mxPoint x="540.197249070632" y="320" as="targetPoint"/>
                    </mxGeometry>
                </mxCell>
                <mxCell id="95" value="C2" style="rounded=0;whiteSpace=wrap;html=1;fontSize=9;" parent="WIyWlLk6GJQsqaUBKTNV-1" vertex="1">
                    <mxGeometry x="351.3448327137546" y="370" width="22.304832713754646" height="20" as="geometry"/>
                </mxCell>
                <mxCell id="96" value="S+" style="rounded=0;whiteSpace=wrap;html=1;fontSize=9;" parent="WIyWlLk6GJQsqaUBKTNV-1" vertex="1">
                    <mxGeometry x="329.0448327137546" y="350" width="22.304832713754646" height="20" as="geometry"/>
                </mxCell>
                <mxCell id="97" value="" style="edgeStyle=none;rounded=0;orthogonalLoop=1;jettySize=auto;html=1;fontSize=9;entryX=0.5;entryY=0;entryDx=0;entryDy=0;endArrow=none;endFill=0;" parent="WIyWlLk6GJQsqaUBKTNV-1" source="98" target="103" edge="1">
                    <mxGeometry relative="1" as="geometry">
                        <mxPoint x="205.997249070632" y="540" as="targetPoint"/>
                    </mxGeometry>
                </mxCell>
                <mxCell id="98" value="S-" style="rounded=0;whiteSpace=wrap;html=1;fontSize=9;" parent="WIyWlLk6GJQsqaUBKTNV-1" vertex="1">
                    <mxGeometry x="194.8448327137546" y="440" width="22.304832713754646" height="20" as="geometry"/>
                </mxCell>
                <mxCell id="99" value="" style="edgeStyle=none;rounded=0;orthogonalLoop=1;jettySize=auto;html=1;fontSize=9;exitX=0.5;exitY=1;exitDx=0;exitDy=0;entryX=0.5;entryY=0;entryDx=0;entryDy=0;endArrow=none;endFill=0;" parent="WIyWlLk6GJQsqaUBKTNV-1" source="98" target="104" edge="1">
                    <mxGeometry relative="1" as="geometry"/>
                </mxCell>
                <mxCell id="100" value="" style="edgeStyle=none;rounded=0;orthogonalLoop=1;jettySize=auto;html=1;fontSize=9;exitX=0.5;exitY=1;exitDx=0;exitDy=0;entryX=0.5;entryY=0;entryDx=0;entryDy=0;endArrow=none;endFill=0;" parent="WIyWlLk6GJQsqaUBKTNV-1" source="98" target="102" edge="1">
                    <mxGeometry relative="1" as="geometry">
                        <mxPoint x="183.69241635687732" y="400" as="sourcePoint"/>
                    </mxGeometry>
                </mxCell>
                <object label="" branch="0" id="101">
                    <mxCell style="group;fontSize=9;" parent="WIyWlLk6GJQsqaUBKTNV-1" vertex="1" connectable="0">
                        <mxGeometry x="172.91" y="460" width="66.17100371747212" height="20" as="geometry"/>
                    </mxCell>
                </object>
                <mxCell id="102" value="" style="rounded=0;whiteSpace=wrap;html=1;fontSize=9;" parent="101" vertex="1">
                    <mxGeometry width="22.304832713754646" height="20" as="geometry"/>
                </mxCell>
                <mxCell id="103" value="" style="rounded=0;whiteSpace=wrap;html=1;fontSize=9;" parent="101" vertex="1">
                    <mxGeometry x="22.304832713754646" width="22.304832713754646" height="20" as="geometry"/>
                </mxCell>
                <mxCell id="104" value="" style="rounded=0;whiteSpace=wrap;html=1;fontSize=9;" parent="101" vertex="1">
                    <mxGeometry x="43.86617100371747" width="22.304832713754646" height="20" as="geometry"/>
                </mxCell>
                <mxCell id="105" value="&lt;div style=&quot;font-size: 14px&quot;&gt;&lt;span style=&quot;white-space: pre&quot;&gt;&lt;b&gt;Packed game search tree&lt;/b&gt;&lt;/span&gt;&lt;/div&gt;" style="rounded=0;whiteSpace=wrap;html=1;fontSize=9;align=center;" parent="WIyWlLk6GJQsqaUBKTNV-1" vertex="1">
                    <mxGeometry x="18.26" y="300" width="251.74" height="50" as="geometry"/>
                </mxCell>
            </root>
        </mxGraphModel>
    </diagram>
</mxfile>